HIERARCHY
ROOT Hips
{
	OFFSET 0.00000 0.00000 0.00000
	CHANNELS 6 Xposition Yposition Zposition Zrotation Yrotation Xrotation 
	JOINT LHipJoint
	{
		OFFSET 0 0 0
		CHANNELS 3 Zrotation Yrotation Xrotation
		JOINT LeftUpLeg
		{
			OFFSET 1.29432 -1.88279 0.59910
			CHANNELS 3 Zrotation Yrotation Xrotation
			JOINT LeftLeg
			{
				OFFSET 2.63039 -7.22694 0.00000
				CHANNELS 3 Zrotation Yrotation Xrotation
				JOINT LeftFoot
				{
					OFFSET 2.70674 -7.43672 0.00000
					CHANNELS 3 Zrotation Yrotation Xrotation
					JOINT LeftToeBase
					{
						OFFSET 0.15066 -0.41394 2.09027
						CHANNELS 3 Zrotation Yrotation Xrotation
						End Site
						{
							OFFSET 0.00000 -0.00000 1.07518
						}
					}
				}
			}
		}
	}
	JOINT RHipJoint
	{
		OFFSET 0 0 0
		CHANNELS 3 Zrotation Yrotation Xrotation
		JOINT RightUpLeg
		{
			OFFSET -1.37068 -1.88279 0.59910
			CHANNELS 3 Zrotation Yrotation Xrotation
			JOINT RightLeg
			{
				OFFSET -2.57023 -7.06166 0.00000
				CHANNELS 3 Zrotation Yrotation Xrotation
				JOINT RightFoot
				{
					OFFSET -2.76461 -7.59570 0.00000
					CHANNELS 3 Zrotation Yrotation Xrotation
					JOINT RightToeBase
					{
						OFFSET -0.24175 -0.64785 2.19719
						CHANNELS 3 Zrotation Yrotation Xrotation
						End Site
						{
							OFFSET -0.00000 -0.00000 1.14803
						}
					}
				}
			}
		}
	}
	JOINT LowerBack
	{
		OFFSET 0 0 0
		CHANNELS 3 Zrotation Yrotation Xrotation
		JOINT Spine
		{
			OFFSET -0.03138 2.03983 -0.23106
			CHANNELS 3 Zrotation Yrotation Xrotation
			JOINT Spine1
			{
				OFFSET -0.00325 2.06238 -0.06878
				CHANNELS 3 Zrotation Yrotation Xrotation
				JOINT Neck
				{
					OFFSET 0 0 0
					CHANNELS 3 Zrotation Yrotation Xrotation
					JOINT Neck1
					{
						OFFSET -0.00002 1.75318 0.18090
						CHANNELS 3 Zrotation Yrotation Xrotation
						JOINT Head
						{
							OFFSET 0.08806 1.75856 -0.25387
							CHANNELS 3 Zrotation Yrotation Xrotation
							End Site
							{
								OFFSET 0.02554 1.78597 -0.10684
							}
						}
					}
				}
				JOINT LeftShoulder
				{
					OFFSET 0 0 0
					CHANNELS 3 Zrotation Yrotation Xrotation
					JOINT LeftArm
					{
						OFFSET 3.09657 1.33597 -0.04414
						CHANNELS 3 Zrotation Yrotation Xrotation
						JOINT LeftForeArm
						{
							OFFSET 5.34298 -0.00000 -0.00000
							CHANNELS 3 Zrotation Yrotation Xrotation
							JOINT LeftHand
							{
								OFFSET 3.67262 -0.00000 -0.00000
								CHANNELS 3 Zrotation Yrotation Xrotation
								JOINT LeftFingerBase
								{
									OFFSET 0 0 0
									CHANNELS 3 Zrotation Yrotation Xrotation
									JOINT LeftHandIndex1
									{
										OFFSET 0.59930 -0.00000 -0.00000
										CHANNELS 3 Zrotation Yrotation Xrotation
										End Site
										{
											OFFSET 0.48317 -0.00000 -0.00000
										}
									}
								}
								JOINT LThumb
								{
									OFFSET 0 0 0
									CHANNELS 3 Zrotation Yrotation Xrotation
									End Site
									{
										OFFSET 0.49055 -0.00000 0.49055
									}
								}
							}
						}
					}
				}
				JOINT RightShoulder
				{
					OFFSET 0 0 0
					CHANNELS 3 Zrotation Yrotation Xrotation
					JOINT RightArm
					{
						OFFSET -3.16460 1.32273 -0.23382
						CHANNELS 3 Zrotation Yrotation Xrotation
						JOINT RightForeArm
						{
							OFFSET -5.54967 -0.01834 0.03348
							CHANNELS 3 Zrotation Yrotation Xrotation
							JOINT RightHand
							{
								OFFSET -3.69401 -0.00000 0.00000
								CHANNELS 3 Zrotation Yrotation Xrotation
								JOINT RightFingerBase
								{
									OFFSET 0 0 0
									CHANNELS 3 Zrotation Yrotation Xrotation
									JOINT RightHandIndex1
									{
										OFFSET -0.63811 -0.00000 0.00000
										CHANNELS 3 Zrotation Yrotation Xrotation
										End Site
										{
											OFFSET -0.51446 -0.00000 0.00000
										}
									}
								}
								JOINT RThumb
								{
									OFFSET 0 0 0
									CHANNELS 3 Zrotation Yrotation Xrotation
									End Site
									{
										OFFSET -0.52232 -0.00000 0.52232
									}
								}
							}
						}
					}
				}
			}
		}
	}
}
MOTION
Frames: 15
Frame Time: .0083333
-3.3875 17.8528 -0.8754 -359.0580 27.3707 -367.4750 0.0000 0.0000 0.0000 -11.7273 2.1443 -17.4075 1.5191 7.7829 22.0567 -1.3776 20.2517 -6.7642 0.0805 -1.8297 -5.0353 0.0000 0.0000 0.0000 21.5071 5.8265 -9.7629 -4.1951 -12.4157 37.2187 -1.0122 -7.6504 -23.2354 -0.5155 -4.6019 12.7766 -4.5392 0.8958 0.1474 -5.1534 1.4110 2.5403 -2.7426 0.6880 2.5627 2.7706 2.5939 -16.5346 -1.4286 3.8238 33.6176 -0.3906 1.8984 14.3984 0.0000 0.0000 0.0000 -85.7847 -15.8406 60.3585 128.7596 -53.4837 -92.8321 -0.0000 0.0000 -67.6949 39.7040 63.1153 36.5232 -7.1250 0.0000 -0.0000 -140.2542 -79.5522 147.4279 0.0000 0.0000 0.0000 64.6121 23.8605 53.5437 -129.1578 53.3296 -93.1518 0.0000 -0.0000 -20.3062 -14.7158 -6.1338 1.6075 7.1250 -0.0000 -0.0000 10.0752 -36.1615 2.2172
-3.3759 17.8579 -0.9024 -358.5960 27.0191 -367.4190 0.0000 0.0000 0.0000 -11.9992 1.5095 -16.7900 1.5150 7.7729 22.0265 -1.3826 20.2759 -7.0921 0.1261 -2.2891 -6.3053 0.0000 0.0000 0.0000 21.0072 6.0418 -9.6020 -4.1919 -12.4115 37.2037 -1.0102 -7.4411 -23.0648 -0.5826 -4.8872 13.5872 -4.8515 0.8313 0.0272 -5.3116 1.3461 2.5587 -2.7329 0.6504 2.6473 2.7503 2.7510 -16.7156 -1.3684 4.0396 33.7308 -0.3223 1.9931 14.4949 0.0000 0.0000 0.0000 -85.7703 -16.3500 60.7116 129.2642 -53.2880 -93.2371 -0.0000 0.0000 -67.2350 40.6839 63.5971 37.5955 -7.1250 0.0000 -0.0000 -142.6880 -79.0407 149.8571 0.0000 0.0000 0.0000 64.3760 23.9483 53.0986 -129.7240 53.1062 -93.6053 0.0000 -0.0000 -20.3349 -14.6804 -6.2654 1.6377 7.1250 -0.0000 -0.0000 10.1251 -36.2932 2.1954
-3.3694 17.8653 -0.9221 -357.7040 26.6769 -367.1790 0.0000 0.0000 0.0000 -12.7146 1.5759 -16.3853 1.5058 7.7504 21.9584 -1.2976 19.6796 -6.7819 0.2398 -3.1517 -8.7014 0.0000 0.0000 0.0000 20.0985 6.1312 -9.4963 -4.1989 -12.4205 37.2361 -1.0075 -7.1994 -22.8662 -0.5543 -4.7692 13.2516 -5.6633 0.8124 -0.1145 -5.5247 1.3536 2.5433 -2.5009 0.6393 2.7028 2.8528 2.9087 -16.7610 -1.5707 4.3157 33.7996 -0.3739 2.0944 14.5536 -0.0000 -0.0000 0.0000 -85.9382 -16.6943 61.0864 129.7170 -53.1090 -93.5997 -0.0000 0.0000 -66.9172 43.0975 64.3302 40.1427 -7.1250 0.0000 -0.0000 -147.4992 -78.0835 154.4719 -0.0000 -0.0000 0.0000 63.9986 23.9539 52.4546 -130.2637 52.8886 -94.0363 0.0000 -0.0000 -20.6020 -15.0483 -6.1619 1.6530 7.1250 -0.0000 -0.0000 9.8040 -36.2083 2.1447
-3.3633 17.8741 -0.9439 -357.0310 26.3210 -367.0990 0.0000 0.0000 0.0000 -13.2609 2.3892 -16.2914 1.5186 7.7818 22.0533 -1.1411 18.5132 -6.3680 0.3238 -3.6574 -10.1146 0.0000 0.0000 0.0000 19.4001 6.1142 -9.3152 -4.1876 -12.4059 37.1835 -0.9873 -7.0430 -22.5791 -0.5119 -4.5861 12.7316 -6.3247 0.8033 -0.1085 -5.6784 1.3484 2.4444 -2.2942 0.6274 2.5892 3.0780 3.0540 -16.5271 -1.9804 4.6147 33.7647 -0.5327 2.1964 14.5141 0.0000 -0.0000 0.0000 -86.0186 -16.7783 61.4485 130.1523 -52.9339 -93.9475 -0.0000 0.0000 -66.8394 43.8286 64.7195 40.9577 -7.1250 0.0000 -0.0000 -148.7414 -77.6353 155.7540 0.0000 -0.0000 0.0000 63.5757 23.8585 51.8257 -130.7354 52.6946 -94.4120 0.0000 -0.0000 -20.8843 -14.9908 -5.5632 1.4870 7.1250 -0.0000 -0.0000 9.7616 -35.5953 2.2831
-3.3549 17.8810 -0.9696 -356.7510 25.8326 -367.1360 0.0000 0.0000 0.0000 -13.3978 3.1083 -16.4241 1.5809 7.9324 22.5091 -1.0066 17.4421 -5.7919 0.5533 -4.7650 -13.2395 0.0000 0.0000 0.0000 19.1117 6.2082 -9.0815 -4.1399 -12.3443 36.9609 -0.9496 -6.9953 -22.2146 -0.4658 -4.3778 12.1422 -6.5287 0.7718 -0.0438 -5.7803 1.2845 2.2206 -2.2895 0.5994 2.3194 3.3420 3.1999 -15.9869 -2.3235 4.8845 33.6462 -0.6814 2.3053 14.3678 -0.0000 0.0000 0.0000 -85.9367 -16.7472 61.8286 130.7218 -52.7002 -94.4012 -0.0000 0.0000 -66.7003 43.2827 64.8633 40.4507 -7.1250 0.0000 -0.0000 -147.8259 -77.6062 155.0378 -0.0000 0.0000 0.0000 63.3073 23.5518 51.3849 -131.4237 52.4049 -94.9584 0.0000 -0.0000 -20.9891 -14.1300 -5.5109 1.3849 7.1250 -0.0000 -0.0000 10.4624 -35.4986 2.4764
-3.3575 17.8749 -0.9800 -358.0750 24.9953 -368.1850 0.0000 0.0000 0.0000 -11.7070 3.5814 -16.1588 1.6546 8.1063 23.0374 -0.9188 16.6925 -5.5834 0.7672 -5.5931 -15.6083 0.0000 0.0000 0.0000 20.7277 6.7252 -8.2852 -4.0779 -12.2634 36.6702 -0.8843 -7.4842 -21.9944 -0.3989 -4.0549 11.2311 -5.4458 0.7545 0.1973 -5.4301 1.2228 2.3853 -2.5300 0.5812 2.3628 3.5431 3.4650 -16.4834 -2.5006 5.2619 33.7717 -0.7148 2.4575 14.5664 0.0000 -0.0000 0.0000 -85.9596 -17.3843 62.1706 131.1301 -52.5294 -94.7255 -0.0000 0.0000 -66.1898 43.8821 64.8513 41.0414 -7.1250 0.0000 -0.0000 -148.8165 -77.5159 155.8877 0.0000 -0.0000 0.0000 62.9377 23.8622 50.7731 -132.1295 52.0997 -95.5165 0.0000 -0.0000 -21.3548 -13.2587 -5.8087 1.3661 7.1250 -0.0000 -0.0000 11.2261 -35.7542 2.5917
-3.3630 17.8587 -0.9858 -360.3840 23.9568 -369.7870 0.0000 0.0000 0.0000 -8.9214 3.9341 -15.5434 1.6888 8.1853 23.2782 -0.8853 16.3865 -5.8765 0.7040 -5.3629 -14.9466 0.0000 0.0000 0.0000 23.4521 7.3735 -7.3381 -4.0389 -12.2120 36.4863 -0.8246 -8.0665 -21.9067 -0.3155 -3.6106 9.9837 -3.5476 0.7972 0.5120 -4.7433 1.2214 2.5447 -2.8792 0.6065 2.3651 3.5065 3.6291 -16.5894 -2.5761 5.5459 33.8516 -0.6878 2.5599 14.6408 0.0000 -0.0000 0.0000 -86.1665 -17.7982 62.6729 131.4842 -52.3791 -95.0063 -0.0000 0.0000 -65.5904 45.2140 64.9083 42.3780 -7.1250 0.0000 -0.0000 -150.9354 -77.2263 157.7430 0.0000 -0.0000 0.0000 62.3069 23.9891 50.0710 -132.7289 51.8338 -95.9886 0.0000 -0.0000 -21.7086 -12.8521 -5.5621 1.2668 7.1250 -0.0000 -0.0000 11.5196 -35.4853 2.7386
-3.3545 17.8667 -1.0087 -360.2900 23.4819 -369.7500 0.0000 0.0000 0.0000 -8.8789 4.1034 -15.4581 1.6868 8.1807 23.2644 -0.8663 16.2149 -5.9814 0.6676 -5.2252 -14.5521 0.0000 0.0000 0.0000 23.3692 7.6887 -7.2864 -4.0352 -12.2070 36.4684 -0.8441 -7.8977 -21.9502 -0.2568 -3.2604 9.0046 -3.7641 0.7889 0.2791 -4.7219 1.2214 2.4557 -2.7326 0.6009 2.3997 3.5797 3.6812 -16.2532 -2.8226 5.6910 33.7041 -0.7829 2.6019 14.5156 -0.0000 0.0000 0.0000 -86.4047 -17.9250 63.3563 131.9902 -52.1606 -95.4065 -0.0000 0.0000 -64.9972 45.4300 65.0671 42.6301 -7.1250 0.0000 -0.0000 -151.2161 -77.0533 158.0639 -0.0000 0.0000 0.0000 61.6334 23.9102 49.3381 -133.2434 51.6006 -96.3925 0.0000 -0.0000 -21.9384 -12.7154 -5.2170 1.1754 7.1250 -0.0000 -0.0000 11.5753 -35.1322 2.8538
-3.3242 17.8839 -1.0474 -358.2880 23.4068 -368.5600 0.0000 0.0000 0.0000 -11.0327 3.8052 -15.5300 1.6559 8.1093 23.0466 -0.8900 16.4273 -6.2425 0.6665 -5.2210 -14.5401 0.0000 0.0000 0.0000 21.0117 7.6543 -7.8876 -4.0625 -12.2431 36.5973 -0.8852 -7.2148 -21.7988 -0.2932 -3.4821 9.6241 -5.4485 0.7382 -0.1516 -5.2714 1.2116 2.2168 -2.3591 0.5719 2.3804 3.6977 3.7192 -15.9127 -3.1294 5.8126 33.4301 -0.9140 2.6326 14.3364 -0.0000 -0.0000 0.0000 -86.6226 -17.9713 64.2801 132.7851 -51.8085 -96.0328 -0.0000 0.0000 -64.1287 44.8489 64.5066 41.9203 -7.1250 0.0000 -0.0000 -150.4684 -77.6294 157.1378 -0.0000 -0.0000 0.0000 60.9824 23.7129 48.5673 -133.9281 51.2829 -96.9279 0.0000 -0.0000 -22.4215 -12.2770 -5.2800 1.1472 7.1250 -0.0000 -0.0000 11.9435 -35.1737 2.9355
-3.2920 17.8861 -1.0808 -357.5270 22.8462 -368.0500 0.0000 0.0000 0.0000 -11.8259 3.6100 -15.2656 1.5951 7.9663 22.6118 -0.9364 16.8386 -6.7640 0.5642 -4.8110 -13.3702 0.0000 0.0000 0.0000 20.0146 7.8224 -8.3684 -4.1076 -12.3022 36.8095 -0.8985 -6.6195 -21.4843 -0.2950 -3.4924 9.6528 -5.8594 0.7482 -0.4404 -5.4844 1.2543 2.0793 -2.3479 0.5888 2.3994 3.7380 3.8291 -15.7306 -3.3513 6.0217 33.0895 -0.9783 2.7003 14.1630 -0.0000 -0.0000 0.0000 -86.7510 -18.1795 64.9311 133.5715 -51.4494 -96.6493 -0.0000 0.0000 -63.7621 45.8182 64.3305 42.8436 -7.1250 0.0000 -0.0000 -152.1127 -77.5854 158.4701 -0.0000 -0.0000 0.0000 60.3137 23.5817 47.7637 -134.8347 50.8492 -97.6331 0.0000 -0.0000 -22.9165 -11.8705 -5.8596 1.2293 7.1250 -0.0000 -0.0000 12.3749 -35.7318 2.8737
-3.2685 17.8908 -1.1060 -357.5530 22.0785 -368.0380 0.0000 0.0000 0.0000 -11.7307 4.0648 -15.0483 1.5429 7.8409 22.2319 -0.9173 16.6753 -6.8205 0.5066 -4.5624 -12.6645 0.0000 0.0000 0.0000 19.9788 8.2634 -8.4871 -4.1311 -12.3328 36.9197 -0.9156 -6.1892 -21.3379 -0.3042 -3.5461 9.8030 -5.6836 0.7718 -0.6836 -5.4634 1.3009 2.0402 -2.4194 0.6131 2.4986 3.8651 3.9794 -15.6817 -3.6317 6.2880 32.8865 -1.0688 2.7927 14.0920 -0.0000 0.0000 0.0000 -86.9331 -18.4774 65.0716 133.8961 -51.2980 -96.9030 -0.0000 0.0000 -64.8435 47.9585 66.0870 45.3927 -7.1250 0.0000 -0.0000 -154.2316 -75.7015 161.1301 -0.0000 0.0000 0.0000 59.7710 23.4379 47.0568 -135.7465 50.3975 -98.3380 0.0000 -0.0000 -23.1902 -12.0262 -6.3889 1.3580 7.1250 -0.0000 -0.0000 12.3409 -36.2681 2.7005
-3.2462 17.8991 -1.1294 -357.4020 21.4820 -368.0990 0.0000 0.0000 0.0000 -11.8530 4.5749 -14.9369 1.5345 7.8205 22.1702 -0.9140 16.6449 -5.7527 0.8905 -6.0150 -16.8278 0.0000 0.0000 0.0000 19.7847 8.5782 -8.3204 -4.1154 -12.3124 36.8464 -0.9272 -5.8838 -21.2357 -0.3871 -3.9954 11.0636 -5.7637 0.7141 -0.7471 -5.4846 1.2274 1.9940 -2.3982 0.5751 2.4856 3.9260 4.0924 -15.8042 -3.8805 6.5247 32.9816 -1.1374 2.8631 14.1884 0.0000 0.0000 0.0000 -86.9821 -18.5641 65.9379 134.7003 -50.9145 -97.5288 -0.0000 0.0000 -63.3682 45.7466 64.3790 42.7838 -7.1250 0.0000 -0.0000 -151.9762 -77.5599 158.3760 0.0000 0.0000 0.0000 59.2950 23.2687 46.4515 -136.4815 50.0217 -98.9027 0.0000 -0.0000 -23.5891 -11.7785 -6.3410 1.3193 7.1250 -0.0000 -0.0000 12.5364 -36.2064 2.7643
-3.2232 17.9117 -1.1509 -357.2280 20.8978 -368.1820 0.0000 0.0000 0.0000 -11.9665 4.5458 -14.6454 1.5479 7.8529 22.2682 -0.9586 17.0934 -4.7570 1.3544 -7.3669 -20.8071 0.0000 0.0000 0.0000 19.5762 8.7867 -8.0831 -4.0823 -12.2692 36.6909 -0.9149 -5.7828 -21.0546 -0.3223 -3.6489 10.0911 -5.8867 0.5444 -0.6979 -5.5116 0.9907 1.9065 -2.3648 0.4570 2.3658 4.0023 4.3070 -15.8792 -4.0959 6.9016 33.1128 -1.1721 2.9998 14.2990 -0.0000 -0.0000 0.0000 -86.9518 -18.5264 65.9762 135.1073 -50.7158 -97.8443 -0.0000 0.0000 -63.1362 45.4005 64.3465 42.4310 -7.1250 0.0000 -0.0000 -151.4245 -77.6563 157.8837 -0.0000 -0.0000 0.0000 58.7722 23.3738 46.0688 -137.0796 49.7081 -99.3600 0.0000 -0.0000 -24.1972 -11.1682 -6.1666 1.2149 7.1250 -0.0000 -0.0000 13.0061 -35.9989 2.9397
-3.1973 17.9268 -1.1748 -356.9890 20.3441 -368.0390 0.0000 0.0000 0.0000 -12.0840 4.1794 -14.4302 1.5661 7.8969 22.4015 -0.9895 17.3271 -5.2135 1.1680 -6.8603 -19.3021 0.0000 0.0000 0.0000 19.2225 8.9021 -8.1366 -4.0462 -12.2216 36.5204 -0.8946 -5.6252 -20.7601 -0.1576 -2.5578 7.0499 -6.0071 0.3902 -0.8209 -5.5836 0.7876 1.7522 -2.3771 0.3565 2.2754 4.0972 4.5622 -15.7401 -4.2361 7.3008 33.0624 -1.1792 3.1652 14.2796 0.0000 -0.0000 0.0000 -87.0196 -18.5532 66.0301 135.5517 -50.4953 -98.1878 -0.0000 0.0000 -63.7055 46.4133 64.5917 43.5002 -7.1250 0.0000 -0.0000 -152.9350 -77.2450 159.3057 0.0000 -0.0000 0.0000 58.1555 23.4620 45.6375 -137.7136 49.3677 -99.8424 0.0000 -0.0000 -24.6527 -10.9243 -6.4536 1.2428 7.1250 -0.0000 -0.0000 13.2602 -36.2695 2.9099
-3.1693 17.9303 -1.1970 -357.0330 19.7522 -367.8900 0.0000 0.0000 0.0000 -11.8818 3.9453 -14.4075 1.5879 7.9492 22.5597 -0.9727 17.1456 -6.1883 0.8724 -5.9551 -16.6541 0.0000 0.0000 0.0000 19.1387 9.0315 -8.3152 -4.0062 -12.1687 36.3313 -0.8743 -5.3860 -20.4096 -0.2956 -3.4958 9.6624 -5.8406 0.3564 -1.1129 -5.5705 0.7539 1.6030 -2.4548 0.3426 2.2868 4.0449 4.7140 -15.5081 -4.3009 7.5541 32.8383 -1.1575 3.2649 14.1427 0.0000 -0.0000 0.0000 -87.1471 -18.7458 66.8420 136.0764 -50.2301 -98.5918 -0.0000 0.0000 -63.9180 48.1924 64.4878 45.2600 -7.1250 0.0000 -0.0000 -155.6782 -76.9285 161.6060 0.0000 -0.0000 0.0000 57.4629 23.2118 44.8881 -138.3714 49.0057 -100.3402 0.0000 -0.0000 -24.7808 -10.7414 -6.7749 1.2820 7.1250 -0.0000 -0.0000 13.4724 -36.5767 2.8549
